<svg xmlns="http://www.w3.org/2000/svg" id="Layer_1" viewBox="0 0 22 22"><style>.st0{fill:#00aeef}</style><path class="st0" d="M11 8.472A1.42 1.42 0 0 1 9.585 7.05V1.835A1.42 1.42 0 0 1 11 .413a1.42 1.42 0 0 1 1.415 1.422V7.05c0 .785-.634 1.422-1.415 1.422m-3.305 2.413a1.413 1.413 0 0 1-1.784.912L.98 10.187a1.424 1.424 0 0 1-.91-1.792 1.414 1.414 0 0 1 1.784-.914l4.933 1.612a1.424 1.424 0 0 1 .909 1.792m6.609 0a1.413 1.413 0 0 0 1.783.913l4.934-1.61a1.424 1.424 0 0 0 .908-1.792 1.414 1.414 0 0 0-1.782-.914l-4.934 1.612a1.423 1.423 0 0 0-.909 1.791M4.243 21.315a1.426 1.426 0 0 1-.314-1.986l3.048-4.22a1.412 1.412 0 0 1 1.977-.315c.632.462.772 1.352.312 1.987L6.218 21a1.409 1.409 0 0 1-1.975.315m13.515 0c.632-.46.773-1.35.314-1.986l-3.048-4.22a1.412 1.412 0 0 0-1.977-.315 1.428 1.428 0 0 0-.313 1.987L15.782 21a1.41 1.41 0 0 0 1.976.315"/></svg>